<?xml version="1.0" encoding="UTF-8" standalone="no"?><!DOCTYPE svg PUBLIC "-//W3C//DTD SVG 1.1//EN" "http://www.w3.org/Graphics/SVG/1.1/DTD/svg11.dtd">
<svg width="100%" height="100%" viewBox="0 0 260 163" version="1.1" xmlns="http://www.w3.org/2000/svg" xmlns:xlink="http://www.w3.org/1999/xlink" xml:space="preserve" xmlns:serif="http://www.serif.com/" style="fill-rule:evenodd;clip-rule:evenodd;stroke-linejoin:round;stroke-miterlimit:2;">
<g>
<path d="M208.269,96.433c4.415,-3.07 5.359,-7.498 3.35,-12.088c-2.873,-6.564 -11.13,-12.086 -20.62,-10.901c-12.344,1.542 -17.606,9.995 -19.845,16.431c-4.654,13.381 4.85,31.027 21.436,24.151c7.567,-3.137 4.583,-9.874 15.679,-17.593Z" style="fill:currentColor;fill-rule:nonzero;"/>
<path d="M223.26,106.58c-3.414,4.711 6.964,13.685 10.456,9.281c4.287,-5.403 5.897,-13.426 -0.935,-13.396c0,-0 -6.727,0.256 -9.521,4.115Z" style="fill:currentColor;fill-rule:nonzero;"/>
<path d="M240.313,113.463c-2.245,9.031 -9.865,15.245 -14.124,18.266c-10.48,7.435 -21.776,11.923 -30.403,13.618c0.751,-9.86 -5.54,-21.908 -19.782,-24.445c-12.5,-2.227 -17.845,-0.527 -31.15,-2.602c-10.033,-1.562 -24.166,-12.67 -27.113,-30.818c-2.013,-12.402 -1.348,-20.185 -8.061,-21.504c-10.209,-2.006 -16.359,17.797 -15.339,32.42c1.636,23.448 10.146,44.055 26.933,54.848c-13.977,0 -34.621,-0.006 -45.667,-0.008c13.872,-11.283 13.831,-30.389 6.157,-40.338c-6.745,-8.744 -17.035,-7.824 -24.435,-5.548c-2.376,-7.741 -4.435,-15.188 -5.272,-18.688c-4.326,-18.078 -24.803,-25.614 -38.702,-12.576c3.772,-36.67 35.001,-67.057 75.116,-67.057c19.986,0 39.161,8.037 53.175,21.913c-4.452,5.517 -4.392,12.739 -4.374,17.408c0.056,14.005 12.326,14.982 16.116,8.678c4.484,-7.46 2.123,-5.151 9.845,-12.476c1.906,-1.806 2.723,-4.47 2.633,-7.269c24.688,-2.209 46.692,11.941 55.905,32.892c1.725,5.82 -2.591,9.151 -2.125,15.762c0.332,4.752 3.755,6.535 8.768,8.569c0.789,0.435 1.728,0.845 2.862,1.238c6.789,2.346 10.717,10.961 9.037,17.717Zm-173.814,39.449c-10.459,5.297 -19.069,5.248 -22.684,0.285c-4.904,-6.73 0.819,-19.406 13.371,-26.406c10.278,-5.731 17.334,-4.442 20.668,-0.881c6.799,7.26 1.396,20.543 -11.355,27.002Zm175.873,-53.863c-4.257,-6.675 -9.578,-7.717 -11.242,-8.516c-0.566,-21.172 -12.173,-39.371 -29.029,-49.563c1.735,-8.32 -3.494,-19.877 -17.129,-18.842c-8.348,0.633 -13.098,5.215 -16.102,10.171c-1.33,0.044 -2.663,0.138 -3.994,0.27c-3.089,-7.86 -11.276,-10.769 -19.72,-4.879c-14.915,-14.843 -35.366,-23.446 -56.685,-23.446c-23.982,-0 -46.658,10.344 -62.297,29.381c-3.659,-3.348 -9.276,-5.971 -16.324,-1.35c-11.952,7.835 -7.863,25.024 1.815,28.225c-2.223,7.201 -3.406,14.724 -3.483,22.395c-2.495,4.646 -4.326,10.978 -4.709,19.687c-0.875,19.922 5.606,57.359 42.908,58.734c8.143,0.301 15.302,-0.814 21.223,-3.293c10.281,0.006 49.482,0.027 63.471,0.022c5.779,2.06 12.273,3.193 19.543,3.193c23.183,0 39.293,1.744 44.056,-10.777c7.995,-1.36 19.287,-4.44 29.66,-11.392c14.777,-0.549 25.268,-1.513 30.224,-8.624c6.088,-8.733 2.521,-25.816 -12.186,-31.396Z" style="fill:currentColor;fill-rule:nonzero;"/>
</g>
</svg>